# xmcd CD database file
#
# Track frame offsets:
#	150
#	32659
#	54184
#	96992
#	130796
#	154887
#	186820
#
# Disc length: 3059 seconds
#
# Revision: 0
# Processed by: cddbd v1.5.1PL0 Copyright (c) Steve Scherf et al.
# Submitted via: CDex 1.51
#
DISCID=530bf107
DTITLE=Colin John Band - Live Voodoo Surfing From The Beachland
DYEAR=2004
DGENRE=Blues
TTITLE0=Are You Ready For The Blues
TTITLE1=For Your Pleasure
TTITLE2=Beer Drinking Woman
TTITLE3=Hoodoo Voodoo
TTITLE4=11 Months And 29 Days
TTITLE5=Shake Em' On Down
TTITLE6=Voodoo Chile (Slight Return Pt. 3)
EXTD=YEAR: 2004
EXTT0=
EXTT1=
EXTT2=
EXTT3=
EXTT4=
EXTT5=
EXTT6=
PLAYORDER=
